<?xml version="1.0" encoding="utf-8"?>
<!-- Generator: Adobe Illustrator 15.0.0, SVG Export Plug-In . SVG Version: 6.00 Build 0)  -->
<!DOCTYPE svg PUBLIC "-//W3C//DTD SVG 1.1//EN" "http://www.w3.org/Graphics/SVG/1.1/DTD/svg11.dtd">
<svg version="1.1" id="Layer_1" xmlns="http://www.w3.org/2000/svg" xmlns:xlink="http://www.w3.org/1999/xlink" x="0px" y="0px"
	 width="512px" height="512px" viewBox="0 0 512 512" enable-background="new 0 0 512 512" xml:space="preserve">
<g>
	<path fill-rule="evenodd" clip-rule="evenodd" fill="#FFFFFF" d="M512,77c0,1,0,2,0,3c-3.508,17.442-12.839,40.123-19,60
		c-19.214,61.984-38.106,115.322-60,174c-27.322,73.23-58.303,156.119-149,163c-36.064,2.736-54.241-9.902-79-21
		c-37.701-16.897-72.123-32.315-109-49c-18.872-8.538-39.396-15.261-54-25C11.792,361.855-6.217,317.021,7,265
		c74.998,30.669,151.785,59.548,225,92c-0.902,41.37,9.653,76.493,45,79c24.67,1.75,47.469-12.576,61-26
		c34.722-34.444,53.052-95.171,72-149c20.603-58.53,39.562-114.022,55-167c-84.927-15.073-166.338-33.662-251-49
		c-20.826,57.071-41.911,114.52-63,173c-6.359,17.634-10.672,47.693-31,48c-8.208,0.124-17.833-5.879-20-15
		c-2.137-8.996,4.553-23.473,8-33c19.952-55.138,36.249-102.72,57-159c6.425-17.427,14.682-53,30-57c8.827-2.305,25.463,2.316,39,5
		c79.819,15.823,152.501,30.438,231,46C489.75,57.906,507.034,56.99,512,77z"/>
</g>
</svg>
