<?xml version="1.0" encoding="utf-8"?>
<!-- Generator: Adobe Illustrator 15.0.0, SVG Export Plug-In . SVG Version: 6.00 Build 0)  -->
<!DOCTYPE svg PUBLIC "-//W3C//DTD SVG 1.1//EN" "http://www.w3.org/Graphics/SVG/1.1/DTD/svg11.dtd">
<svg version="1.1" id="Layer_1" xmlns="http://www.w3.org/2000/svg" xmlns:xlink="http://www.w3.org/1999/xlink" x="0px" y="0px"
	 width="512px" height="512px" viewBox="0 0 512 512" enable-background="new 0 0 512 512" xml:space="preserve">
<g>
	<path fill-rule="evenodd" clip-rule="evenodd" fill="#FFFFFF" d="M344,3c10.786-0.375,30.439,7.085,44,12
		c12.185,4.417,25.618,10.049,31,22c4.965,11.026,0.062,26.061,4,40c6.715,23.771,44.746,21.735,51,43
		c3.919,13.324-4.214,26.645-3,38c1.282,11.995,13.631,18.913,17,27c8.671,20.81,4.582,38.819-6,55
		c-3.763,5.754-13.273,14.313-14,23c-1.195,14.285,13.889,30.646,18,46c5.836,21.791,6.942,59.92-3,79
		c-7.336,14.078-29.332,22.624-43,38c-8.117,9.132-13.663,22.634-23,29c-14.609,9.962-41.309,13.76-65,17
		c-53.376,7.301-86.638,16.316-134,29c-17.832,4.775-52.322,14.017-71,8c-11.935-3.845-10.38-16.92-20-21
		c-8.022-3.402-19.58-1.668-30-3c-35.059-4.479-74.439-12.209-79-49c-2.816-22.715,6.204-40.99,5-61
		c-1.772-29.455-17.297-56.624-6-85c8.521-21.403,28.137-31.901,30-60c1.857-28-15.222-65.941-5-92c5.26-13.408,23.133-23.116,34-36
		c23.824-28.245,25.255-60.848,76-64c32.647-2.028,59.389,5.784,86,4c18.629-1.249,32.942-5.015,50-13
		C307.099,20.06,320.604,3.813,344,3z M344,43c-13.789,4.933-28.582,16.949-42,23c-27.961,12.611-66.373,17.308-105,14
		c-15.654-1.34-42.565-6.995-57-1c-6.241,2.592-11.861,14.508-17,23c-5.267,8.703-10.535,17.326-16,24
		c-7.199,8.792-26.864,19.458-29,30c-1.998,9.858,3.421,25.81,5,37c4.283,30.348,3.678,55.697-7,77
		c-7.199,14.361-21.874,25.435-24,38c-3.319,19.618,8.726,42.152,10,64c0.826,14.167-1.127,23.135-2,36
		c9.57,13.64,18.877,27.366,37,29c26.753,2.411,49.094-16.296,66-28c10.46-7.241,26.11-20.543,39-20c9.62,0.405,17.834,10.241,26,10
		c14.447-0.427,31.525-19.341,34-30c2.33-10.038-1.607-22.697,1-32c6.107-21.792,27.313-21.203,50-30
		c7.923-3.072,16.451-10.613,25-14c20.602-8.161,39.453-11.157,45-26c6.225-16.656-5.554-34.305-7-51c-1.832-21.15,8.151-39.75,6-61
		c-0.835-8.253-4.309-15.815-5-24c-2.272-26.912,11.214-53.622-1-80C364.833,48.833,355.734,44.599,344,43z"/>
	<path fill-rule="evenodd" clip-rule="evenodd" fill="#FFFFFF" d="M299,115c1.257,0,6.163-0.838,9,2c6.457,6.459-1.532,20.41,1,31
		c1.609,6.729,12.312,7.818,14,16c1.873,9.078-7.952,12.689-8,22c-0.038,7.474,6.305,11.553,6,15c-0.655,7.425-11.624,9.563-18,13
		c-4.877,2.629-10.719,6.693-16,11c-10.294,8.396-19.208,22.242-29,25c-6.441,1.814-15.591,0.275-19-2
		c-12.826-8.563-3.427-26.062-6-46c-1.147-8.892-8.948-19.551-10-30c-1.222-12.132,4.262-24.404,9-28c3.351-2.543,15.161-3.69,21-6
		C268.72,131.783,279.323,115.009,299,115z"/>
	<path fill-rule="evenodd" clip-rule="evenodd" fill="#FFFFFF" d="M157,243c3.519,2.481,9.305,2.695,14,4
		c1.81,9.19,3.517,18.482,12,21c-1.264,7.088-6.001,12.123-9,20c-4.242,11.142-3.97,31.104-18,31c-9.878-0.072-11.11-11.759-19-21
		c-6.239-7.307-23.576-13.267-21-29c0.754-4.607,8.351-9.671,11-14c6.205-10.137,7.13-29.035,20-27
		C153.53,229.033,153.225,236.701,157,243z"/>
</g>
</svg>
