<?xml version="1.0" encoding="utf-8"?>
<!-- Generator: Adobe Illustrator 15.0.0, SVG Export Plug-In . SVG Version: 6.00 Build 0)  -->
<!DOCTYPE svg PUBLIC "-//W3C//DTD SVG 1.1//EN" "http://www.w3.org/Graphics/SVG/1.1/DTD/svg11.dtd">
<svg version="1.1" id="Layer_1" xmlns="http://www.w3.org/2000/svg" xmlns:xlink="http://www.w3.org/1999/xlink" x="0px" y="0px"
	 width="512px" height="512px" viewBox="0 0 512 512" enable-background="new 0 0 512 512" xml:space="preserve">
<g>
	<path fill-rule="evenodd" clip-rule="evenodd" fill="#FFFFFF" d="M342,7c0.667,0,1.333,0,2,0c-14.576,60.434-29.484,117.495-45,180
		c-6.893,27.767-16.5,56.918-32,80c-6.44,9.592-16.196,19.321-24,32c-5.734,9.316-17.78,30.051-14,40
		c3.713,9.772,23.999,8.556,33,13c48.742,24.067,40.009,128.738-8,149c-22.683,9.573-56.604,1.396-70-12
		c-12.064-12.064-18.722-31.273-19-57c-0.497-46.002,13.382-85.956,23-127c9.365-39.966,19.247-80.707,29-120
		c10.78-43.426,15.862-84.342,36-114C273.849,40.295,303.702,19.876,342,7z M221,310c17.611-6.154,8.05-28.792-1-31
		c-3.056-0.745-5.292-0.342-10,1C187.664,286.368,203.504,316.114,221,310z M205,464c6.482,7.97,21.427,14.082,36,8
		c29.575-12.343,35.556-108.93-18-93C201.524,382.68,186.842,441.675,205,464z"/>
	<path fill-rule="evenodd" clip-rule="evenodd" fill="#FFFFFF" d="M171,276c-2.619,16.048-7.726,29.607-10,46
		C90.806,333.441,1.542,336.044,1,263c-0.342-46.146,39.172-67.856,93-64c36.154,2.59,61.173,19.918,66,53
		C161.42,261.729,158.771,275.49,171,276z M38,244c-5.595,7.702-7.737,26.638,0,37c13.998,18.747,70.314,20.389,86,0
		c9.741-12.661,6.038-33.462-5-42c-8.713-6.74-27.326-9.059-44-8C60.091,231.947,45.096,234.232,38,244z"/>
	<path fill-rule="evenodd" clip-rule="evenodd" fill="#FFFFFF" d="M508,199c0.975,8.359-6.538,19.565-12,28
		c-16.213,25.037-40.474,47.826-71,60c-43.285,17.262-100.131,11.947-152,23c16.352-26.315,33.92-51.414,45-83
		C380.651,216.984,444.706,208.373,508,199z"/>
</g>
</svg>
